<svg xmlns="http://www.w3.org/2000/svg" viewBox="0 0 256 256" role="img" aria-label="LatchLine shield logo">
  <defs>
    <linearGradient id="shield" x1="0" y1="0" x2="0" y2="1">
      <stop offset="0" stop-color="#1f2937" />
      <stop offset="1" stop-color="#0b1020" />
    </linearGradient>
    <linearGradient id="rim" x1="0" y1="0" x2="1" y2="1">
      <stop offset="0" stop-color="#f8fafc" stop-opacity="0.9" />
      <stop offset="1" stop-color="#f59e0b" stop-opacity="0.9" />
    </linearGradient>
    <radialGradient id="glass" cx="35%" cy="35%" r="65%">
      <stop offset="0" stop-color="#e2f2ff" stop-opacity="0.9" />
      <stop offset="1" stop-color="#38bdf8" stop-opacity="0.9" />
    </radialGradient>
  </defs>
  <path d="M128 16l84 32v72c0 56-36 96-84 120-48-24-84-64-84-120V48l84-32z" fill="url(#shield)" stroke="url(#rim)" stroke-width="10" />
  <path d="M128 30l72 28v60c0 48-30 82-72 104-42-22-72-56-72-104V58l72-28z" fill="none" stroke="#111827" stroke-width="6" opacity="0.6" />
  <path d="M92 84v88a14 14 0 0 0 14 14h62" fill="none" stroke="#f8fafc" stroke-width="12" stroke-linecap="round" stroke-linejoin="round" />
  <path d="M168 186h-26" fill="none" stroke="#f59e0b" stroke-width="12" stroke-linecap="round" />
  <circle cx="168" cy="186" r="8" fill="#f59e0b" />
  <circle cx="128" cy="130" r="18" fill="url(#glass)" stroke="#e2e8f0" stroke-width="6" />
  <path d="M140 142l18 18" fill="none" stroke="#94a3b8" stroke-width="6" stroke-linecap="round" />
</svg>
